<?xml version="1.0" encoding="utf-8"?>
<!-- Generator: Adobe Illustrator 15.1.0, SVG Export Plug-In . SVG Version: 6.00 Build 0)  -->
<!DOCTYPE svg PUBLIC "-//W3C//DTD SVG 1.1//EN" "http://www.w3.org/Graphics/SVG/1.1/DTD/svg11.dtd">
<svg version="1.1" id="Calque_1" xmlns="http://www.w3.org/2000/svg" xmlns:xlink="http://www.w3.org/1999/xlink" x="0px" y="0px"
	 width="200px" height="200px" viewBox="0 0 200 200" enable-background="new 0 0 200 200" xml:space="preserve">
<g id="Calque_2">
</g>
<rect x="-269.833" y="124.5" fill="#394142" width="88" height="57"/>
<g>
	<g>
		<path fill="#067CC1" d="M58.242,51.498c0,22.868,18.619,41.496,41.485,41.496c22.882,0,41.485-18.628,41.485-41.496
			C141.213,28.615,122.609,10,99.728,10C76.861,10,58.242,28.615,58.242,51.498z M64.095,51.498
			c0-19.647,15.985-35.648,35.632-35.648c19.661,0,35.647,16,35.647,35.648c0,19.654-15.986,35.643-35.647,35.643
			C80.08,87.141,64.095,71.151,64.095,51.498z"/>
		<path fill="#067CC1" d="M14.192,99.917c0,22.888,18.619,41.497,41.498,41.497c22.89,0,41.494-18.608,41.494-41.497
			c0-22.869-18.604-41.498-41.494-41.498C32.811,58.419,14.192,77.047,14.192,99.917z M20.034,99.917
			c0-19.655,15.999-35.634,35.656-35.634c19.654,0,35.64,15.979,35.64,35.634c0,19.667-15.986,35.653-35.64,35.653
			C36.033,135.569,20.034,119.583,20.034,99.917z"/>
		<path fill="#067CC1" d="M58.242,148.513c0,22.869,18.619,41.487,41.485,41.487c22.882,0,41.485-18.618,41.485-41.487
			c0-22.875-18.604-41.494-41.485-41.494C76.861,107.019,58.242,125.638,58.242,148.513z M64.095,148.513
			c0-19.651,15.985-35.64,35.632-35.64c19.661,0,35.647,15.988,35.647,35.64s-15.986,35.634-35.647,35.634
			C80.08,184.146,64.095,168.164,64.095,148.513z"/>
		<path fill="#067CC1" d="M102.813,99.917c0,22.888,18.621,41.497,41.494,41.497c22.881,0,41.502-18.608,41.502-41.497
			c0-22.869-18.621-41.498-41.502-41.498C121.434,58.419,102.813,77.047,102.813,99.917z M108.668,99.917
			c0-19.655,15.988-35.634,35.639-35.634c19.664,0,35.645,15.979,35.645,35.634c0,19.667-15.98,35.653-35.645,35.653
			C124.656,135.569,108.668,119.583,108.668,99.917z"/>
		<rect x="90.961" y="56.807" fill="#067CC1" width="5.853" height="85.764"/>
		<rect x="103.162" y="56.807" fill="#067CC1" width="5.857" height="85.764"/>
		<rect x="57.118" y="102.876" fill="#067CC1" width="85.749" height="5.838"/>
		<rect x="57.118" y="90.661" fill="#067CC1" width="85.749" height="5.851"/>
	</g>
</g>
</svg>
